<svg id="Layer_1" xmlns="http://www.w3.org/2000/svg" viewBox="0 0 1167.66 922.5">
  <g>
    <polygon points="388.33 921.62 388.16 921.79 0.71 534.33 139.33 395.71 384.33 640.71 1024.33 0.71 1166.95 143.33 741.81 568.48 741.64 568.66 388.5 921.79 388.33 921.62" style="fill: #00870a"/>
    <path d="M1080.5,180.16l141.92,141.92L797.6,746.89l-.14.15-352.79,352.8-.17-.17-.17.17L57.58,713.08,195.5,575.16l244.29,244.3.71.7.71-.7,639.29-639.3m0-1.41-640,640-245-245L56.17,713.08l388.16,388.17.17-.17.17.17,353.5-353.5.16-.17,425.5-425.5L1080.5,178.75Z" transform="translate(-56.17 -178.75)"/>
  </g>
</svg>
