<svg id="Layer_1" xmlns="http://www.w3.org/2000/svg" viewBox="0 0 1052.68 1056">
  <g>
    <path d="M900.66,639.14a59.79,59.79,0,0,0-17.55-41l-3.45-3.45q1.77,1.51,3.45,3.19A59.79,59.79,0,0,1,900.66,639.14Z" transform="translate(-115.32 -112)" style="fill: #fff"/>
    <path d="M879.66,594.7l3.45,3.45a59.79,59.79,0,0,1,17.55,41,59.79,59.79,0,0,0-17.55-41.25q-1.68-1.68-3.45-3.19Z" transform="translate(-115.32 -112)"/>
  </g>
  <g>
    <path d="M640,1167.5A527.57,527.57,0,0,1,116,701H694L543.65,851.35a60.5,60.5,0,1,0,85.55,85.56L877,689.09a60.47,60.47,0,0,0,10.46-87.29,58.2,58.2,0,0,0-4-4.45L629.2,343.09a60.5,60.5,0,1,0-85.55,85.57L695,580H115.88A527.81,527.81,0,1,1,640,1167.5Z" transform="translate(-115.32 -112)" style="fill: #404040"/>
    <path d="M640,113A527.14,527.14,0,0,1,845.13,1125.59,527.23,527.23,0,0,1,116.55,701.5H692.79L543.29,851a61,61,0,1,0,86.27,86.26L877.33,689.5a61,61,0,0,0,10.55-88c-1.27-1.55-2.64-3.06-4.06-4.48l-3.45-3.45L629.56,342.74A61,61,0,0,0,543.29,429L693.78,579.5H116.44A526.53,526.53,0,0,1,640,113m0-1c-271.49,0-495.12,204.91-524.68,468.5H696.2L544,428.3a60,60,0,0,1,84.85-84.86L879.66,594.25l3.45,3.45c1.42,1.42,2.75,2.9,4,4.42a60,60,0,0,1-10.44,86.62L628.85,936.55A60,60,0,0,1,544,851.7L695.2,700.5H115.43C145.44,963.61,368.85,1168,640,1168c291.61,0,528-236.39,528-528S931.61,112,640,112Z" transform="translate(-115.32 -112)"/>
  </g>
  <g>
    <path d="M900.66,641.76A59.77,59.77,0,0,1,883.11,683q-1.65,1.65-3.39,3.14l3.39-3.39A59.79,59.79,0,0,0,900.66,641.76Z" transform="translate(-115.32 -112)" style="fill: #fff"/>
    <path d="M900.66,641.76a59.79,59.79,0,0,1-17.55,41l-3.39,3.39q1.74-1.49,3.39-3.14a59.77,59.77,0,0,0,17.55-41.24Z" transform="translate(-115.32 -112)"/>
  </g>
</svg>
