<svg id="Layer_1" xmlns="http://www.w3.org/2000/svg" viewBox="0 0 707.1 707.1">
  <g>
    <polygon points="353.55 529.61 176.77 706.39 0.71 530.33 177.49 353.55 0.71 176.77 176.77 0.71 353.55 177.49 530.33 0.71 706.39 176.77 529.61 353.55 706.39 530.33 530.33 706.39 353.55 529.61" style="fill: #ce0005"/>
    <path d="M816.78,287.86,992.14,463.22,816.06,639.29l-.7.71.7.71L992.14,816.78,816.78,992.14,640.71,816.06l-.71-.7-.71.7L463.22,992.14,287.86,816.78,463.94,640.71l.7-.71-.7-.71L287.86,463.22,463.22,287.86,639.29,463.94l.71.7.71-.7L816.78,287.86m0-1.41L640,463.23,463.22,286.45,286.45,463.22,463.23,640,286.45,816.78,463.22,993.55,640,816.77,816.78,993.55,993.55,816.78,816.77,640,993.55,463.22,816.78,286.45Z" transform="translate(-286.45 -286.45)"/>
  </g>
</svg>
