<svg id="Layer_1" xmlns="http://www.w3.org/2000/svg" viewBox="0 0 812 574.67">
  <path d="M640,640.25" transform="translate(-234 -352.91)" style="fill: #153bff;stroke: #000;stroke-miterlimit: 10"/>
  <g>
    <g>
      <path d="M862,861.32a313.48,313.48,0,0,0,.49-442.14l65.06-65.05a405.14,405.14,0,0,1-.5,572.25Z" transform="translate(-234 -352.91)" style="fill: #153bff"/>
      <path d="M927.58,354.83a404.65,404.65,0,0,1-.5,570.84l-64.34-64.35a313.73,313.73,0,0,0,.49-442.14l64.35-64.35m0-1.41-65.76,65.76a313,313,0,0,1-.5,442.14l65.77,65.77a406,406,0,0,0,.49-573.67Z" transform="translate(-234 -352.91)"/>
    </g>
    <g>
      <path d="M353.42,926.88a405.17,405.17,0,0,1-.51-573.26L418,418.68a313.49,313.49,0,0,0,.5,443.14Z" transform="translate(-234 -352.91)" style="fill: #153bff"/>
      <path d="M352.92,354.33l64.34,64.35a313.72,313.72,0,0,0,.51,443.14l-64.35,64.35a404.65,404.65,0,0,1-.5-571.84m0-1.42a406,406,0,0,0,.51,574.67l65.76-65.76a313,313,0,0,1-.5-443.14l-65.77-65.77Z" transform="translate(-234 -352.91)"/>
    </g>
  </g>
</svg>
